<?xml version="1.0" encoding="iso-8859-1"?>
<!-- Generator: Adobe Illustrator 19.0.0, SVG Export Plug-In . SVG Version: 6.00 Build 0)  -->
<svg version="1.1" id="Capa_1" xmlns="http://www.w3.org/2000/svg" xmlns:xlink="http://www.w3.org/1999/xlink" x="0px" y="0px"
	 viewBox="0 0 511.993 511.993" style="enable-background:new 0 0 511.993 511.993;" xml:space="preserve">
<circle style="fill:#5F98D1;" cx="255.997" cy="255.997" r="255.997"/>
<path style="fill:#3B6EAF;" d="M363.184,222.584h-11.941l-29.898-29.898l-0.125,0.125c-16.154-14.416-37.449-23.189-60.806-23.189
	c-8.179,0-16.099,1.09-23.642,3.107l-18.552-18.552l-0.011,0.011c-15.897-16.153-38.003-26.177-62.458-26.177
	c-48.402,0-87.639,39.237-87.639,87.639c0,24.456,10.031,46.554,26.188,62.447l-0.01,0.01l27.89,27.89
	c-3.134,6.932-4.889,14.619-4.889,22.721c0,13.751,5.032,26.318,13.341,35.989l-0.01,0.009l0.13,0.13
	c1.755,2.029,3.653,3.927,5.682,5.682l140.606,140.606c107.138-8.717,195.607-83.398,224.747-183.373l-81.541-81.541l0,0
	C405.644,231.616,385.469,222.584,363.184,222.584z"/>
<circle style="fill:#F7DC4D;" cx="155.752" cy="215.652" r="87.639"/>
<g>
	<circle style="fill:#FFFFFF;" cx="260.409" cy="261.041" r="91.42"/>
	<path style="fill:#FFFFFF;" d="M363.184,222.584h-47.917l-84.486,50.86h-58.216c-30.526,0-55.273,24.747-55.273,55.273
		s24.747,55.273,55.273,55.273h190.619c44.571,0,80.703-36.133,80.703-80.703C443.887,258.716,407.754,222.584,363.184,222.584z"/>
</g>
<g>
</g>
<g>
</g>
<g>
</g>
<g>
</g>
<g>
</g>
<g>
</g>
<g>
</g>
<g>
</g>
<g>
</g>
<g>
</g>
<g>
</g>
<g>
</g>
<g>
</g>
<g>
</g>
<g>
</g>
</svg>
